<svg xmlns="http://www.w3.org/2000/svg" xmlns:xlink="http://www.w3.org/1999/xlink" width="1000" zoomAndPan="magnify" viewBox="0 0 750 749.999995" height="1000" preserveAspectRatio="xMidYMid meet" version="1.0"><defs><clipPath id="8c800b47ef"><path d="M 112.5 222.273438 L 637.5 222.273438 L 637.5 522 L 112.5 522 Z M 112.5 222.273438 " clip-rule="nonzero"/></clipPath><clipPath id="2d5826064f"><path d="M 112.5 222.273438 L 637.5 222.273438 L 637.5 369 L 112.5 369 Z M 112.5 222.273438 " clip-rule="nonzero"/></clipPath></defs><g clip-path="url(#8c800b47ef)"><path fill="#f9ecd9" d="M 637.089844 368.339844 C 637.089844 368.339844 541.144531 464.179688 525.835938 474.246094 C 510.527344 484.3125 414.582031 512.097656 374.949219 519.960938 C 335.3125 527.722656 288.019531 504.339844 254.78125 493.222656 C 221.542969 482.109375 141.011719 394.027344 141.011719 394.027344 L 115.742188 361.941406 L 112.804688 358.167969 L 189.558594 294.625 C 189.558594 294.625 296.933594 224.476562 307.210938 223.425781 C 317.484375 222.273438 369.914062 223.425781 403.152344 223.425781 C 436.394531 223.425781 536.113281 267.992188 546.390625 280.257812 C 556.558594 292.527344 623.144531 348.207031 625.660156 351.5625 C 628.179688 354.917969 637.195312 368.234375 637.195312 368.234375 Z M 637.089844 368.339844 " fill-opacity="1" fill-rule="nonzero"/></g><path fill="#279151" d="M 379.5625 263.796875 C 379.5625 263.796875 306.476562 269.039062 286.34375 296.300781 C 266.316406 323.566406 251.007812 342.4375 253.3125 374.945312 C 255.621094 407.449219 253.3125 437.859375 280.472656 459.878906 C 307.628906 481.898438 353.660156 499.726562 395.5 491.335938 C 437.335938 482.949219 477.496094 461.976562 483.371094 443.101562 C 489.242188 424.226562 501.089844 410.597656 495.113281 369.703125 C 489.242188 328.808594 475.609375 313.601562 465.019531 294.730469 C 454.429688 275.855469 379.457031 263.796875 379.457031 263.796875 Z M 379.5625 263.796875 " fill-opacity="1" fill-rule="nonzero"/><path fill="#02390c" d="M 415.003906 301.648438 C 415.003906 301.648438 363.308594 281.726562 340.867188 293.890625 C 318.429688 306.054688 301.863281 314.023438 293.054688 337.089844 C 284.246094 360.054688 272.816406 380.082031 284.351562 403.886719 C 295.886719 427.6875 321.574219 454.636719 352.925781 462.394531 C 384.28125 470.15625 418.359375 468.6875 428.53125 457.675781 C 438.597656 446.667969 451.074219 441.109375 460.195312 411.332031 C 469.320312 381.445312 464.914062 366.765625 463.65625 350.410156 C 462.503906 334.050781 415.109375 301.753906 415.109375 301.753906 Z M 415.003906 301.648438 " fill-opacity="1" fill-rule="nonzero"/><path fill="#ffffff" d="M 268.726562 296.40625 C 268.726562 296.40625 252.578125 309.933594 253 319.789062 C 253.417969 329.542969 253.3125 336.566406 260.023438 343.800781 C 266.734375 351.039062 271.871094 358.585938 282.359375 359.214844 C 292.84375 359.84375 307 356.28125 315.285156 347.15625 C 323.566406 338.140625 329.019531 326.394531 326.816406 321.046875 C 324.617188 315.597656 324.824219 310.457031 315.808594 301.859375 C 306.789062 293.261719 300.707031 292.003906 294.625 289.277344 C 288.546875 286.65625 268.726562 296.40625 268.726562 296.40625 Z M 268.726562 296.40625 " fill-opacity="1" fill-rule="nonzero"/><g clip-path="url(#2d5826064f)"><path fill="#02390c" d="M 637.089844 368.339844 L 571.554688 327.65625 L 499.308594 277.953125 C 499.308594 277.953125 427.167969 249.429688 417.835938 247.019531 C 408.5 244.605469 357.644531 242.40625 349.152344 241.566406 C 340.660156 240.726562 275.019531 264.738281 266.421875 267.992188 C 257.925781 271.242188 187.988281 326.394531 187.988281 326.394531 L 140.695312 355.125 L 115.84375 361.941406 L 112.910156 358.167969 L 189.664062 294.625 C 189.664062 294.625 296.933594 224.476562 307.210938 223.425781 C 317.484375 222.273438 369.914062 223.425781 403.152344 223.425781 C 436.394531 223.425781 536.113281 267.992188 546.390625 280.257812 C 556.558594 292.527344 623.144531 348.207031 625.660156 351.5625 C 628.179688 354.917969 637.195312 368.234375 637.195312 368.234375 Z M 637.089844 368.339844 " fill-opacity="1" fill-rule="nonzero"/></g></svg>